<svg id="Calque_1" data-name="Calque 1" xmlns="http://www.w3.org/2000/svg" viewBox="0 0 300.54 81.06">
  <defs>
    <style>
      .cls-1 {
        fill: #f39000;
      }

      .cls-2 {
        fill: #fff;
      }

      .cls-3 {
        fill: red;
      }
    </style>
  </defs>
  <g>
    <path class="cls-1" d="M779.44,817.63H752.06v-5h60.3v5H785V888.7h-5.54Z" transform="translate(-752.06 -808.07)"/>
    <path class="cls-2" d="M836.16,834.86a25.77,25.77,0,0,1,13.47-3.32v5.33l-1.31-.11q-9.45,0-14.77,5.92t-5.33,16.46V888.7h-5.43V832H828v12.38A19.54,19.54,0,0,1,836.16,834.86Z" transform="translate(-752.06 -808.07)"/>
    <path class="cls-2" d="M912,861.64H863.21a23.76,23.76,0,0,0,3.37,11.79,21.58,21.58,0,0,0,8.53,8,25.66,25.66,0,0,0,12.11,2.82,26,26,0,0,0,10.27-2,20,20,0,0,0,7.88-5.92l3.15,3.58a24.06,24.06,0,0,1-9.29,6.85,32.38,32.38,0,0,1-27.22-1.3,26.74,26.74,0,0,1-10.37-10.22,29.27,29.27,0,0,1-3.75-14.88,30.81,30.81,0,0,1,3.53-14.84,26,26,0,0,1,9.72-10.26,28.08,28.08,0,0,1,27.76-.06,26,26,0,0,1,9.68,10.16,30.58,30.58,0,0,1,3.53,14.78ZM874.29,839a20.31,20.31,0,0,0-7.66,7.49,24.47,24.47,0,0,0-3.31,10.92h43.46a22.6,22.6,0,0,0-3.26-10.86,21.15,21.15,0,0,0-7.71-7.5,21.43,21.43,0,0,0-10.76-2.72A21.71,21.71,0,0,0,874.29,839Z" transform="translate(-752.06 -808.07)"/>
    <path class="cls-2" d="M973.5,837.74q6.18,6.18,6.19,17.81V888.7h-5.43V856q0-9.56-4.84-14.56t-13.53-5q-10,0-15.75,6t-5.76,16.08V888.7H929V832h5.21v12.27a21.61,21.61,0,0,1,8.75-9.34,27,27,0,0,1,13.74-3.37Q967.3,831.54,973.5,837.74Z" transform="translate(-752.06 -808.07)"/>
    <path class="cls-3" d="M1052.6,808.07V888.7h-5.33V875.33a24.33,24.33,0,0,1-9.45,10.21,26.69,26.69,0,0,1-13.8,3.59,28.2,28.2,0,0,1-14.34-3.69,26.49,26.49,0,0,1-10.06-10.22A30,30,0,0,1,996,860.34a30.37,30.37,0,0,1,3.63-14.94,26,26,0,0,1,10.06-10.22,28.58,28.58,0,0,1,14.34-3.64,26.21,26.21,0,0,1,13.64,3.59,25.54,25.54,0,0,1,9.5,10v-37ZM1036,881.2a21.85,21.85,0,0,0,8.14-8.48,27.15,27.15,0,0,0,0-24.77,21.92,21.92,0,0,0-8.14-8.48,24,24,0,0,0-23.37,0,22,22,0,0,0-8.15,8.48,27.23,27.23,0,0,0,0,24.77,21.88,21.88,0,0,0,8.15,8.48,24,24,0,0,0,23.37,0Z" transform="translate(-752.06 -808.07)"/>
  </g>
</svg>
