<svg id="Calque_1" data-name="Calque 1" xmlns="http://www.w3.org/2000/svg" viewBox="0 0 312.29 312.29">
  <defs>
    <style>
      .cls-1 {
        fill: red;
      }

      .cls-2 {
        fill: #c1272d;
      }

      .cls-3 {
        fill: #d9e021;
      }

      .cls-4 {
        fill: #009245;
      }

      .cls-5 {
        fill: lime;
      }

      .cls-6 {
        fill: #00a99d;
      }

      .cls-7 {
        fill: #39b54a;
      }

      .cls-8 {
        fill: #8cc63f;
      }
    </style>
  </defs>
  <circle class="cls-1" cx="155.17" cy="155" r="102"/>
  <circle class="cls-2" cx="156.17" cy="214" r="25"/>
  <circle class="cls-2" cx="91.17" cy="162" r="15"/>
  <circle class="cls-2" cx="147.17" cy="91" r="17"/>
  <circle class="cls-2" cx="216.17" cy="122" r="11"/>
  <circle class="cls-2" cx="162.17" cy="145" r="8"/>
  <circle class="cls-2" cx="217.17" cy="198" r="7"/>
  <circle class="cls-3" cx="55.17" cy="55" r="10"/>
  <circle class="cls-4" cx="119.17" cy="25" r="10"/>
  <circle class="cls-5" cx="18.17" cy="193" r="10"/>
  <circle class="cls-4" cx="62.17" cy="249" r="10"/>
  <circle class="cls-6" cx="120.17" cy="295" r="10"/>
  <circle class="cls-4" cx="191.17" cy="287" r="10"/>
  <circle class="cls-3" cx="257.17" cy="258" r="10"/>
  <circle class="cls-4" cx="287.17" cy="191" r="10"/>
  <circle class="cls-7" cx="295.17" cy="120" r="10"/>
  <circle class="cls-4" cx="251.51" cy="63.29" r="10"/>
  <circle class="cls-8" cx="193.17" cy="18" r="10"/>
  <path d="M1079.1,309.13a100.34,100.34,0,0,1,38.46,2.46c.09,0,.15.11.25.13a1.63,1.63,0,0,1,.36,0,99.26,99.26,0,0,1,34.29,16.91,4.88,4.88,0,0,0,5.92-7.76h0A109.18,109.18,0,0,0,1125,303.71l4.45-16.58a17.57,17.57,0,1,0-17.33-22.06h0a17.53,17.53,0,0,0,7.91,19.52l-4.46,16.63a110,110,0,0,0-37.73-1.73,4.88,4.88,0,1,0,.93,9.72l.31,0Zm42.46-41.53a7.56,7.56,0,1,1,5.51,9.54A7.8,7.8,0,0,1,1121.56,267.6Z" transform="translate(-935.83 -252)"/>
  <path d="M1104.85,507.26a99.9,99.9,0,0,1-38.49-2.45c-.1,0-.16-.1-.26-.12h-.18A99.54,99.54,0,0,1,1031.84,488a4.88,4.88,0,1,0-5.86,7.8h0a109.06,109.06,0,0,0,32.93,17l-4.44,16.56a17.32,17.32,0,0,0-16.61,12.88h0a17.51,17.51,0,1,0,26-10.41l4.45-16.6a109.24,109.24,0,0,0,23.43,2.6,110.55,110.55,0,0,0,14.31-.92,4.88,4.88,0,0,0-1-9.71l-.29,0Zm-42.5,41.54a7.79,7.79,0,1,1-15.06-4h0a7.81,7.81,0,0,1,15.06,4Z" transform="translate(-935.83 -252)"/>
  <path d="M990.5,324.27a17.37,17.37,0,0,0,8.42-2.2l12.22,12.22a108.32,108.32,0,0,0-20.36,31.62,4.86,4.86,0,0,0,2.6,6.38h0a4.63,4.63,0,0,0,1.87.38,4.88,4.88,0,0,0,4.51-3,100.31,100.31,0,0,1,54-53.78,4.88,4.88,0,1,0-3.72-9,108.93,108.93,0,0,0-32,20.55l-12.19-12.26a17.33,17.33,0,0,0-2.91-20.82,17.57,17.57,0,1,0-12.41,29.93Zm-5.51-23a7.81,7.81,0,1,1,11.68,10.36,8.36,8.36,0,0,1-.66.67,8,8,0,0,1-11,0A7.81,7.81,0,0,1,985,301.23Z" transform="translate(-935.83 -252)"/>
  <path d="M1185,494.38l-12.27-12.26a108.85,108.85,0,0,0,20.28-31.37,4.88,4.88,0,1,0-9-3.78,100.34,100.34,0,0,1-53.44,53.35,4.88,4.88,0,1,0,3.77,9A108.66,108.66,0,0,0,1165.87,489l12.22,12.24a17.51,17.51,0,1,0,27.72-4A18,18,0,0,0,1185,494.38Zm13.88,20.82a7.77,7.77,0,1,1,0-11,7.72,7.72,0,0,1,0,11Z" transform="translate(-935.83 -252)"/>
  <path d="M987.47,441.25a109.06,109.06,0,0,0,17.09,33.18,4.88,4.88,0,0,0,7.77-5.9,99.31,99.31,0,0,1-16.84-34.22v-.26c0-.08-.07-.13-.1-.21a100,100,0,0,1-2.56-38,4.88,4.88,0,0,0-9.69-1.2h0A110,110,0,0,0,985,431.81l-16.61,4.47a17.56,17.56,0,0,0-19.52-7.91h0a17.57,17.57,0,0,0-4.23,32.16,17.34,17.34,0,0,0,8.74,2.36,17.57,17.57,0,0,0,4.56-.6,17.33,17.33,0,0,0,12.94-16.59Zm-27.32,8a7.82,7.82,0,1,1,.78-5.92h0a7.72,7.72,0,0,1-.82,5.92Z" transform="translate(-935.83 -252)"/>
  <path d="M1247.5,366.52A17.57,17.57,0,0,0,1226,354.11h0a17.33,17.33,0,0,0-12.93,16.58l-16.64,4.46a108.77,108.77,0,0,0-16.87-32.91,4.88,4.88,0,0,0-7.81,5.85,99.27,99.27,0,0,1,16.65,34v.25a1.42,1.42,0,0,0,.08.18,100.24,100.24,0,0,1,2.64,37.46,4.88,4.88,0,0,0,4.26,5.42c.2,0,.39,0,.58,0a4.88,4.88,0,0,0,4.84-4.31,110,110,0,0,0-1.88-36.54l16.62-4.43a17.52,17.52,0,0,0,31.93-13.61Zm-15,12.08a7.81,7.81,0,0,1-9.55-5.51h0a7.81,7.81,0,0,1,5.51-9.55h0a7.81,7.81,0,0,1,4,15.07Z" transform="translate(-935.83 -252)"/>
  <path d="M1157,336.27a4.88,4.88,0,1,0,6.91,6.9h0l17.2-17.2a14.35,14.35,0,1,0-7.06-6.74Zm26.57-26.62a4.55,4.55,0,1,1,0,6.44,4.55,4.55,0,0,1,0-6.44Z" transform="translate(-935.83 -252)"/>
  <path d="M1027,480a4.88,4.88,0,0,0-6.9-6.91h0l-17.2,17.2a14.32,14.32,0,0,0-15.81,3h0a14.31,14.31,0,1,0,22.87,3.76Zm-26.57,26.62a4.55,4.55,0,1,1,0-6.44,4.55,4.55,0,0,1,0,6.44Z" transform="translate(-935.83 -252)"/>
  <path d="M1056,292.68l6.23,23.26a4.88,4.88,0,0,0,9.43-2.53l-6.3-23.5a14.29,14.29,0,0,0,5.32-15.17h0A14.31,14.31,0,1,0,1056,292.69Zm-.33-18.64a4.72,4.72,0,0,1,1.18-.16,4.57,4.57,0,1,1-1.18.16Z" transform="translate(-935.83 -252)"/>
  <path d="M1134.3,525.47a14.27,14.27,0,0,0-6.3-1.83l-6.24-23.27a4.88,4.88,0,1,0-9.52,2.19l.09.34,6.29,23.48a14.27,14.27,0,0,0-5.31,15.2h0a14.31,14.31,0,0,0,13.78,10.61,14.55,14.55,0,0,0,3.72-.49,14.31,14.31,0,0,0,3.46-26.23Zm-3.22,14.68a4.56,4.56,0,1,1,.45-3.44h0A4.52,4.52,0,0,1,1131.08,540.15Z" transform="translate(-935.83 -252)"/>
  <path d="M958.39,387.55A14.3,14.3,0,0,0,974,381.6l23.23,6.22a4.79,4.79,0,0,0,1.3.17,4.88,4.88,0,0,0,1.26-9.6l-23.5-6.29a14.31,14.31,0,0,0-10.49-12.21h0a14.32,14.32,0,0,0-7.41,27.66Zm-.7-15a4.56,4.56,0,1,1,3.26,5.57,4.55,4.55,0,0,1-3.26-5.57Z" transform="translate(-935.83 -252)"/>
  <path d="M1225.61,428.76a14.11,14.11,0,0,0-15.62,6l-23.27-6.23a4.88,4.88,0,0,0-2.52,9.43l23.5,6.29a14.3,14.3,0,0,0,10.47,12.2h0a14.31,14.31,0,0,0,7.41-27.65Zm.69,15a4.55,4.55,0,1,1-3.22-5.57h0A4.55,4.55,0,0,1,1226.3,443.76Z" transform="translate(-935.83 -252)"/>
  <path d="M1007.49,413.45a20.3,20.3,0,1,0,20.29-20.3h0A20.31,20.31,0,0,0,1007.49,413.45Zm30.83,0a10.54,10.54,0,1,1-10.54-10.54A10.54,10.54,0,0,1,1038.32,413.45Z" transform="translate(-935.83 -252)"/>
  <path d="M1092,498.58a31.5,31.5,0,1,0-31.5-31.5h0A31.53,31.53,0,0,0,1092,498.58Zm0-53.24a21.75,21.75,0,1,1-21.74,21.74h0A21.76,21.76,0,0,1,1092,445.34Z" transform="translate(-935.83 -252)"/>
  <path d="M1083.37,320.26a22.92,22.92,0,1,0,22.9,22.95v0A22.94,22.94,0,0,0,1083.37,320.26Zm0,36.08a13.17,13.17,0,1,1,13.14-13.19v0A13.18,13.18,0,0,1,1083.37,356.34Z" transform="translate(-935.83 -252)"/>
  <path d="M1152.1,354.53a19.09,19.09,0,1,0,19.09,19.1h0A19.11,19.11,0,0,0,1152.1,354.53Zm0,28.41a9.33,9.33,0,1,1,9.33-9.33h0A9.33,9.33,0,0,1,1152.1,382.94Z" transform="translate(-935.83 -252)"/>
  <path d="M1083.72,398a15,15,0,1,0,15-15h0A15,15,0,0,0,1083.72,398Zm20.17,0a5.21,5.21,0,1,1-5.21-5.21h0a5.2,5.2,0,0,1,5.22,5.19v0Z" transform="translate(-935.83 -252)"/>
  <path d="M1152.1,435.58a15,15,0,1,0,15,15h0A15,15,0,0,0,1152.1,435.58Zm0,20.17a5.21,5.21,0,1,1,5.21-5.21h0a5.21,5.21,0,0,1-5.19,5.22h0Z" transform="translate(-935.83 -252)"/>
</svg>
