<svg id="Calque_1" data-name="Calque 1" xmlns="http://www.w3.org/2000/svg" viewBox="0 0 260.36 332.38">
  <defs>
    <style>
      .cls-1 {
        fill: #fff;
      }
    </style>
  </defs>
  <g>
    <path class="cls-1" d="M794.07,549.31V389.09c0-5.95.15-6.1,6.09-6.1q93.75,0,187.5.07a7.56,7.56,0,0,1,4.84,2q30,29.78,59.81,59.81a7.54,7.54,0,0,1,2,4.81q.14,129.51.06,259c0,6.68,0,6.69-6.62,6.69H800.41c-6.24,0-6.34-.09-6.34-6.22Zm5.43-161V710H1049V450.47H991.81c-4.6,0-4.86-.26-4.86-4.9q0-26.58,0-53.16v-4.11Zm192.77,5v51.88h51.88Q1018.17,419.17,992.27,393.26Z" transform="translate(-794.07 -382.99)"/>
    <path class="cls-1" d="M949.92,459.24c-.12,32.06-26.58,58.43-58.46,58.26a58.65,58.65,0,1,1,.41-117.3C924,400.29,950,426.77,949.92,459.24Zm-104,26.93c.4-.69.8-1.26,1.09-1.89,4.79-10.09,19.35-14.72,32.65-8.77,8.27,3.7,16,4.08,23.91-.39a14.68,14.68,0,0,1,3.28-1.71c12.33-3,23,1.42,29.81,12.29.1.16.43.17.66.24,13.79-21.69,8.32-52.11-12.36-68.75a53.42,53.42,0,0,0-71.76,4.22C833.18,441.72,835.16,471.22,845.91,486.17Zm77.35,14.58.88.52c2.23-2.09,4.39-4.27,6.7-6.27s2.24-4.09,1.22-6.69c-3.87-9.83-15.67-12.85-25.76-8.55-9.6,4.08-18.68,5.48-28,.61-6.05-3.17-12.07-2.55-18.08-1-5,1.28-8.18,5.1-9.83,10-.37,1.1-.63,2.87,0,3.55,2.59,3,5.5,5.73,8.29,8.55l1-.64a50.55,50.55,0,0,1,.11-7.39c.18-1.15,1.51-2.12,2.32-3.17.85,1,2.3,1.94,2.44,3a45.74,45.74,0,0,1,.1,8.6c-.15,2.44.66,3.8,3,4.89,15.09,7.14,30.22,7.37,45.62,1,3.68-1.52,5.72-3.46,5.06-7.71a21,21,0,0,1,.06-6.71c.2-1.14,1.55-2.09,2.38-3.13.86,1,2.3,2,2.48,3.09A48.66,48.66,0,0,1,923.26,500.75Z" transform="translate(-794.07 -382.99)"/>
    <path class="cls-1" d="M923.82,557.47H826.19c-1.12,0-2.39.31-3.33-.11a4.65,4.65,0,0,1-2.49-2.52c-.15-.6,1.26-1.88,2.22-2.38.79-.41,1.95-.15,2.95-.15h197.51c1,0,2.16-.25,2.94.17.94.52,2.14,1.64,2.13,2.5s-1.26,1.94-2.21,2.36-2.21.13-3.33.13Z" transform="translate(-794.07 -382.99)"/>
    <path class="cls-1" d="M924.39,682.42h98.37a8.07,8.07,0,0,1,3,.09c1,.43,2.52,1.62,2.39,2.12a5.44,5.44,0,0,1-2.31,2.76c-.61.41-1.7.14-2.57.14H825.36c-1,0-2.18.24-2.94-.2-.92-.54-2.06-1.69-2-2.55s1.33-1.85,2.3-2.24,2.21-.11,3.33-.11Z" transform="translate(-794.07 -382.99)"/>
    <path class="cls-1" d="M924.22,654.9h-98c-1.12,0-2.38.3-3.32-.11s-1.81-1.58-2.7-2.41A16,16,0,0,1,823,650c.68-.38,1.71-.11,2.58-.11H1023c1,0,2.15-.25,2.94.16.94.5,2.15,1.59,2.16,2.42s-1.26,1.92-2.21,2.33-2.2.14-3.32.14Z" transform="translate(-794.07 -382.99)"/>
    <path class="cls-1" d="M924.29,622.51h-98c-1,0-2.15.3-3-.08A16.91,16.91,0,0,1,820.2,620a19.53,19.53,0,0,1,3-2.54c.68-.36,1.71-.07,2.59-.07q98.37,0,196.76,0c2.14,0,5.52-1.12,5.58,2.48s-3.32,2.6-5.48,2.6Q973.48,622.54,924.29,622.51Z" transform="translate(-794.07 -382.99)"/>
    <path class="cls-1" d="M924.24,584.94h98.07c1.12,0,2.39-.3,3.33.12s1.78,1.61,2.64,2.45c-.8.79-1.48,1.87-2.45,2.28a9.17,9.17,0,0,1-3.33.15q-98.25,0-196.51-.05c-2.1,0-5.53,1.21-5.64-2.38-.11-3.75,3.37-2.52,5.45-2.52Q875,584.87,924.24,584.94Z" transform="translate(-794.07 -382.99)"/>
    <path class="cls-1" d="M891.34,412.78a25.17,25.17,0,0,1,25.36,25.46c-.06,8.4-2,16.33-6.82,23.35-9.8,14.37-27.19,14.43-36.93.05a38.41,38.41,0,0,1-6.44-27.77A24.81,24.81,0,0,1,891.34,412.78Zm20.18,27.91c.18-12.25-7.64-21.48-17.83-22.59a20,20,0,0,0-22,16.46A31.37,31.37,0,0,0,879.07,461c7.24,8.53,17.54,8.36,24.8-.13A33.62,33.62,0,0,0,911.52,440.69Z" transform="translate(-794.07 -382.99)"/>
  </g>
</svg>
