<svg id="Calque_2" data-name="Calque 2" xmlns="http://www.w3.org/2000/svg" viewBox="0 0 484.32 484.31">
  <defs>
    <style>
      .cls-1 {
        fill: #f9f9f9;
      }

      .cls-2 {
        fill: #fff;
      }

      .cls-3 {
        fill: #4db5ab;
      }

      .cls-4 {
        fill: #f4f4f4;
      }

      .cls-5 {
        fill: #fed640;
      }

      .cls-6 {
        fill: #fd5152;
      }

      .cls-7 {
        fill: #40c2fd;
      }
    </style>
  </defs>
  <g>
    <path class="cls-1" d="M912.61,779.52c-6.79-3.75-8.73-9.7-8.26-17.1.37-5.68.08-11.4.08-17.1,0-2.94.62-5.7,4.23-5.58,3.23.11,3.89,2.66,3.87,5.46,0,7,.1,13.94,0,20.9-.08,3.89,1.69,5.54,5.4,5.49,1,0,1.9,0,2.85,0h262.74c7.71,0,8.25-.56,8.25-8.43V584c0-7.36-.56-7.93-7.7-7.93H919.86c-6.91,0-7.33.41-7.34,7.21,0,6.34,0,12.67,0,19,0,2.8-.6,5.32-3.87,5.46-3.66.16-4.24-2.57-4.24-5.52,0-7.12-.17-14.26.05-21.38.24-8.15,4.78-12.47,12.85-12.7h1.43c46.07-.13,92.15-.63,138.23-.27,42.44.33,84.87.16,127.31.15,7.3,0,12.37,2.32,15.34,9V771c-2.18,4-5.06,7.13-9.51,8.56Z" transform="translate(-715.32 -295.21)"/>
    <path class="cls-2" d="M910.61,434.87q-91.23,0-182.45-.09c-3.83,0-5,.72-5,4.82q.21,111.9.11,223.82c0,12.57,6.09,18.61,18.65,18.61H889.7c1.11,0,2.22,0,3.32,0,3-.09,5.71.52,5.65,4.11s-3,3.93-5.84,3.93q-53.21,0-106.43,0c-15,0-30.09,0-45.13,0-16.24-.07-25.95-9.86-25.95-26.11q0-137.34,0-274.67c0-16.48,9.79-26.41,26.2-26.42q169.4,0,338.77,0c15.92,0,25.82,9.91,25.83,25.76q.06,83.39,0,166.78a30.6,30.6,0,0,1-.09,3.32,3.54,3.54,0,0,1-3.7,3.55c-2.45.05-3.81-1.32-4-3.73-.11-1.26,0-2.53,0-3.8,0-38.18-.07-76.35.09-114.53,0-4.18-.84-5.47-5.3-5.46Q1001.83,435,910.61,434.87Zm0-8.44h36.57c48.77,0,97.53-.06,146.29.09,4,0,5-1,4.89-4.94-.29-10.76-.09-21.54-.11-32.3,0-12-6.11-18.25-18-18.25q-169.56,0-339.12,0c-11.69,0-17.79,6.15-17.85,17.91,0,10.45.23,20.91-.12,31.35-.16,4.75.86,6.29,6,6.27C789.67,426.35,850.14,426.43,910.62,426.43Z" transform="translate(-715.32 -295.21)"/>
    <path class="cls-1" d="M1050.22,675.83c0-8.7.11-17.41-.06-26.12a5.79,5.79,0,0,1,3.23-5.74c14.92-8.6,29.86-17.17,44.65-26,3.21-1.91,5.64-1.63,8.69.18q22,13,44.25,25.74c2.54,1.46,3.41,3.36,3.4,6.16q-.09,26.11,0,52.24a6.44,6.44,0,0,1-3.55,6.15q-22.69,13.2-45.35,26.44a5.69,5.69,0,0,1-6.54-.09c-14.65-8.76-29.34-17.45-44.18-25.86-3.42-1.94-4.57-4.23-4.49-8,.19-8.38.06-16.78.06-25.17Zm91.93-27.67c-13-7.6-25.71-15-38.36-22.38a2.58,2.58,0,0,0-3,0c-12.63,7.41-25.29,14.78-38.42,22.44,13,7.6,25.54,14.89,38,22.24a3.38,3.38,0,0,0,3.89,0C1116.73,663,1129.24,655.72,1142.15,648.16Zm-83.76,7c0,15.21.07,29.59-.06,44,0,2.36,1.13,3.28,2.86,4.28,8.88,5.12,17.71,10.33,26.57,15.49,3.34,1.94,6.73,3.82,10.51,6,0-15.11,0-29.48,0-43.85a3.76,3.76,0,0,0-2.06-3.8C1083.84,670,1071.49,662.78,1058.39,655.13Zm87.5.16c-13.12,7.64-25.5,14.91-37.94,22.05-2,1.12-1.83,2.68-1.83,4.42q0,13.77,0,27.56v15.53c13.18-7.68,25.56-14.91,38-22.07a3.36,3.36,0,0,0,1.79-3.44C1145.87,684.93,1145.89,670.52,1145.89,655.29Z" transform="translate(-715.32 -295.21)"/>
    <path class="cls-3" d="M1038.42,652.48q0,23.73.08,47.46c-18.8,0-37.6,0-56.39.16-2.62,0-3.58-.69-3.56-3.44q.18-20.38,0-40.77c0-2.61.73-3.6,3.47-3.58C1000.83,652.45,1019.62,652.44,1038.42,652.48Z" transform="translate(-715.32 -295.21)"/>
    <path class="cls-1" d="M866.82,510.91q0-18.54,0-37.06c0-6.38.84-7.25,7-7.25q37,0,74.11,0c5.81,0,6.79,1,6.79,7q0,36.83,0,73.65c0,6.37-.94,7.28-7.5,7.28H874.55c-7,0-7.72-.72-7.73-7.52Q866.8,529,866.82,510.91Zm43.84-36.16c-10.76,0-21.52.08-32.28-.05-2.68,0-3.49.75-3.47,3.45q.15,32.3,0,64.57c0,3.06,1.05,3.66,3.83,3.64q32-.14,64.09,0c2.9,0,3.78-.83,3.77-3.75q-.17-32.06,0-64.1c0-3.32-1.25-3.86-4.13-3.82C931.87,474.83,921.26,474.75,910.66,474.75Z" transform="translate(-715.32 -295.21)"/>
    <path class="cls-1" d="M842.9,510.65c0,12.51,0,25,0,37.53,0,5.37-1,6.33-6.39,6.34-25,0-50,0-75,.05-4.34,0-6.32-1.51-6.3-6.11q.18-38,0-76c0-4.39,1.9-5.88,6-5.87,25.17.06,50.34,0,75.51,0,5.36,0,6.19.93,6.2,6.5Q842.92,491.9,842.9,510.65Zm-43.66-35.91c-10.6,0-21.21.16-31.8-.09-3.69-.09-4.46,1.13-4.44,4.58q.22,31.33,0,62.67c0,3.63,1.1,4.5,4.58,4.48q31.57-.23,63.14,0c3.15,0,4.4-.66,4.37-4.13q-.23-31.82,0-63.62c0-3.19-1-4-4.05-3.94C820.44,474.84,809.84,474.74,799.24,474.74Z" transform="translate(-715.32 -295.21)"/>
    <path class="cls-1" d="M1066.26,510.92c0,12.51-.12,25,0,37.52.07,4.58-1.87,6.15-6.25,6.13q-37.75-.14-75.51,0c-4.14,0-6-1.55-6-5.9q.15-38.24,0-76.47c0-3.81,1.57-5.58,5.32-5.58q38.46,0,76.93,0c4.07,0,5.55,1.86,5.51,5.85C1066.17,485.27,1066.26,498.1,1066.26,510.92Zm-7.89-.44c0-10.61-.11-21.21.06-31.82.06-3.08-.8-4-4-4q-32,.19-64.1,0c-3.2,0-4,1-4,4q.17,31.83,0,63.64c0,3.07.83,4.08,4,4.06q32.05-.2,64.11,0c3.24,0,3.94-1.11,3.9-4.09C1058.28,531.7,1058.37,521.09,1058.37,510.48Z" transform="translate(-715.32 -295.21)"/>
    <path class="cls-1" d="M799.23,610.31c12.51,0,25,.1,37.52,0,4.41,0,6.24,1.53,6.2,6.12-.17,17.25-.09,34.51-.05,51.77,0,2.92-.29,5.79-3.88,5.83s-4-2.71-4-5.7c.06-15.36,0-30.72.09-46.07,0-3-.62-4-3.84-4q-32.06.22-64.11,0c-3.48,0-4.14,1.11-4.1,4.31.16,14.41.07,28.81.07,43.22,0,1.11,0,2.22,0,3.33.11,2.74-.91,4.92-3.82,4.94-3.17,0-4.14-2.27-4.08-5.21.09-4.44,0-8.87,0-13.3V618.91c0-8.44.16-8.6,8.38-8.6Z" transform="translate(-715.32 -295.21)"/>
    <path class="cls-1" d="M1038.42,652.48c-18.8,0-37.59,0-56.39-.17-2.74,0-3.49,1-3.47,3.58q.15,20.39,0,40.77c0,2.75.94,3.46,3.56,3.44,18.79-.13,37.59-.13,56.39-.16,2.69.62,4.32,2.18,3.66,5-.61,2.7-2.89,2.94-5.24,2.94-20.24,0-40.47-.08-60.71,0-4.12,0-5.62-1.69-5.6-5.68q.14-26.09,0-52.17c0-4.18,1.52-6.08,5.82-6.06,20.08.08,40.16,0,60.23,0,2.54,0,4.9.37,5.56,3.27S1040.71,651.53,1038.42,652.48Z" transform="translate(-715.32 -295.21)"/>
    <path class="cls-4" d="M910.59,338.93H834.16a23.94,23.94,0,0,1-3.79-.09,3.55,3.55,0,0,1-3.19-4,3.42,3.42,0,0,1,3.13-3.58,28.18,28.18,0,0,1,3.79-.09H987.43a34.13,34.13,0,0,1,3.79.1,3.49,3.49,0,0,1,3.23,3.52,3.59,3.59,0,0,1-3.17,4.05,22.74,22.74,0,0,1-3.79.11Z" transform="translate(-715.32 -295.21)"/>
    <path class="cls-1" d="M908.83,699.7c5.07,0,10.14-.11,15.2,0,7.33.2,12.09,5,12.36,12.28.61,16.41-2.67,19.78-19.25,19.78-7.6,0-15.21.08-22.81,0-9.08-.12-13.73-4.83-13.87-13.81,0-1.9-.08-3.81,0-5.7.36-7.62,5.11-12.36,12.68-12.52C898.37,699.6,903.6,699.7,908.83,699.7Zm-.46,23.89c4.89,0,9.79-.1,14.68,0,3.89.11,5.48-1.77,5.42-5.45,0-1.42-.08-2.85,0-4.26.29-4.42-1.66-6.34-6.15-6.25-7.89.16-15.79,0-23.69,0-10.29,0-10.17,0-10.07,10.24,0,4,1.47,5.83,5.58,5.69C898.88,723.47,903.63,723.59,908.37,723.59Z" transform="translate(-715.32 -295.21)"/>
    <path class="cls-1" d="M908.49,616c5.06,0,10.13-.07,15.2,0,7.66.13,12.45,4.84,12.7,12.37.54,16.27-2.68,19.6-18.91,19.6-7.6,0-15.21.08-22.81,0-9.67-.12-14.15-4.71-14.21-14.39a57.67,57.67,0,0,1,.08-6.17c.68-6.85,5.36-11.14,12.27-11.39h15.68Zm-.07,23.86c5.06,0,10.11,0,15.17,0,3.14,0,4.66-1.56,4.84-4.56.1-1.74,0-3.48.05-5.22.25-4.42-1.75-6.32-6.2-6.23-7.74.15-15.49,0-23.23,0-10.73,0-10.86.21-10.47,10.81.13,3.54,1.53,5.24,5.15,5.18C898.62,639.78,903.52,639.84,908.42,639.84Z" transform="translate(-715.32 -295.21)"/>
    <path class="cls-1" d="M816.6,723.57q19,0,37.94,0c2.84,0,5.73.19,5.89,3.86.16,4-2.86,4.37-5.89,4.38H779.13c-3,0-6.15-.25-6.15-4.15s3.14-4.09,6.15-4.09Q797.87,723.59,816.6,723.57Z" transform="translate(-715.32 -295.21)"/>
    <path class="cls-1" d="M799,570.48h38c2.78,0,5.81-.05,5.83,3.79,0,4-3,4.14-6.06,4.13q-37.5,0-75,0c-3,0-6.24,0-6.32-3.89-.09-4.4,3.52-4,6.55-4Z" transform="translate(-715.32 -295.21)"/>
    <path class="cls-4" d="M1149.58,347.08c3,0,4.35,1.6,4.54,4.12a28.36,28.36,0,0,1,0,6.64c-.71,4.44,1.27,5.53,5.24,5a33.46,33.46,0,0,1,6.17,0c2.49.14,4.34,1.29,4.36,4s-1.75,3.87-4.27,4.14c-3.72.4-8.68-1.72-10.84.93-1.81,2.22-.46,7-.65,10.59-.14,2.52-1.48,4.31-4.14,4.24s-3.89-1.86-4-4.41c-.16-3.61,1.07-8.29-.74-10.53-1.94-2.4-6.81-.57-10.4-.8-2.74-.18-4.68-1.38-4.62-4.28,0-2.66,2-3.77,4.47-3.94,3.6-.25,8.25,1.49,10.52-.73s.54-6.9.74-10.49C1146.12,349.06,1147.25,347.46,1149.58,347.08Z" transform="translate(-715.32 -295.21)"/>
    <path class="cls-4" d="M1094.43,335.07c-2.89-.38-4-2-4.21-4.54-.39-3.71,1.73-8.63-1-10.8-2.25-1.81-6.93-.6-10.53-.72-2.59-.09-4.28-1.24-4.26-4s1.77-3.78,4.35-3.89c3.6-.15,8.16,1.49,10.54-.68s.59-6.86.85-10.43c.19-2.63,1-4.84,4-4.82s4,2.06,4.08,4.78c.17,3.58-1.55,8.23.74,10.46s6.9.6,10.49.67c2.64.05,4.46,1.17,4.56,3.73.11,2.83-1.71,4.11-4.57,4.2-3.59.11-8.23-1.54-10.49.7s-.58,6.88-.72,10.46C1098.2,333,1097,334.62,1094.43,335.07Z" transform="translate(-715.32 -295.21)"/>
    <path class="cls-1" d="M912.55,674.17c0,4.28,0,8.55,0,12.83,0,2.81-1.42,4.73-4.21,4.71-2.57,0-3.91-2-3.92-4.5,0-8.87-.07-17.74,0-26.61,0-2.64,1.12-4.77,4.19-4.65s3.93,2.24,3.94,4.91C912.56,665.3,912.55,669.73,912.55,674.17Z" transform="translate(-715.32 -295.21)"/>
    <path class="cls-1" d="M882.78,578.38c-3.78,0-7.57,0-11.36,0-2.58,0-4.3-1.29-4.35-4s1.66-3.92,4.27-3.93q11.6,0,23.2,0c2.37,0,4,1.18,4.15,3.62.13,2.64-1.48,4.13-4.07,4.21C890.68,578.46,886.73,578.38,882.78,578.38Z" transform="translate(-715.32 -295.21)"/>
    <path class="cls-1" d="M755.56,725.9c2.53,0,5.06-.12,7.58,0a3.87,3.87,0,0,1,4,3.91,3.72,3.72,0,0,1-3.74,4.1c-8.09.27-12.72.09-16.56-.06a3.65,3.65,0,0,1-3.53-3.81A3.82,3.82,0,0,1,747,726c2.83-.22,5.68-.06,8.52-.06Z" transform="translate(-715.32 -295.21)"/>
    <path class="cls-4" d="M1014.52,338.91c-2.69,0-5.39,0-8.08,0a3.87,3.87,0,1,1,.07-7.73c5.39,0,10.77-.06,16.16,0a3.4,3.4,0,0,1,3.58,3.63c.09,2.44-1.2,3.93-3.65,4.05C1019.91,339,1017.21,338.9,1014.52,338.91Z" transform="translate(-715.32 -295.21)"/>
    <path class="cls-5" d="M910.66,474.75c10.6,0,21.21.08,31.81-.05,2.88,0,4.15.5,4.13,3.82q-.23,32.06,0,64.1c0,2.92-.87,3.76-3.77,3.75q-32.05-.17-64.09,0c-2.78,0-3.84-.58-3.83-3.64q.2-32.28,0-64.57c0-2.7.79-3.49,3.47-3.45C889.14,474.83,899.9,474.75,910.66,474.75Z" transform="translate(-715.32 -295.21)"/>
    <path class="cls-6" d="M799.24,474.74c10.6,0,21.2.1,31.8-.07,3,0,4.07.75,4.05,3.94q-.21,31.8,0,63.62c0,3.47-1.22,4.15-4.37,4.13q-31.58-.17-63.14,0c-3.48,0-4.61-.85-4.58-4.48q.25-31.33,0-62.67c0-3.45.75-4.67,4.44-4.58C778,474.9,788.64,474.74,799.24,474.74Z" transform="translate(-715.32 -295.21)"/>
    <path class="cls-7" d="M1058.37,510.48c0,10.61-.09,21.22.06,31.82,0,3-.66,4.11-3.9,4.09q-32.05-.2-64.11,0c-3.18,0-4-1-4-4.06q.17-31.82,0-63.64c0-3,.77-4.05,4-4q32.05.21,64.1,0c3.15,0,4,.91,4,4C1058.26,489.27,1058.37,499.87,1058.37,510.48Z" transform="translate(-715.32 -295.21)"/>
    <path class="cls-2" d="M811.13,399.06a16,16,0,1,1-15.82-16.24A16.24,16.24,0,0,1,811.13,399.06ZM795,406.69a7.84,7.84,0,1,0-7.7-7.86A7.68,7.68,0,0,0,795,406.69Z" transform="translate(-715.32 -295.21)"/>
    <path class="cls-2" d="M771.24,398.63A16,16,0,1,1,755,382.82,16.24,16.24,0,0,1,771.24,398.63ZM755.33,391a7.61,7.61,0,0,0-7.94,7.59,7.82,7.82,0,1,0,15.64.23A7.61,7.61,0,0,0,755.33,391Z" transform="translate(-715.32 -295.21)"/>
  </g>
</svg>
