<svg id="Calque_1" data-name="Calque 1" xmlns="http://www.w3.org/2000/svg" viewBox="0 0 375.26 480.01">
  <defs>
    <style>
      .cls-1 {
        fill: #3f3f3f;
      }
    </style>
  </defs>
  <g>
    <path class="cls-1" d="M925.29,563.7v-5.44q0-85.72,0-171.47c0-18.72,12-34.21,28.9-37.73,21.06-4.39,41.59,10.23,43.14,32.31,1.61,23.08,1.42,46.29,2,69.44,0,1.95,0,3.91,0,5.23,7.43.44,14.28.23,20.9,1.37,8.68,1.51,16.19,5.82,22.73,11.88a7.06,7.06,0,0,0,5.51,1.41c17.72-3.87,32.88.82,46,13,1.34,1.24,3.69,2.47,5.3,2.18,29.26-5.21,55.87,14.27,59.42,43.73a41.62,41.62,0,0,1,.41,5c0,29.33,1,58.71-.53,88-.84,15.91-6,31.6-9.35,47.37-2.18,10.25-4.56,20.47-6.91,30.69-.56,2.47-.07,3.9,2.58,4.9,4,1.53,5.67,5,5.68,9.16,0,21.33.1,42.66,0,64-.05,7-4,10.26-11.87,10.27q-81,0-162,0c-13.67,0-27.33,0-41,0-7.86,0-11.26-3.38-11.28-11.29-.07-20.5,0-41-.07-61.49,0-5.16,1.48-9,6.52-11.26,1-.44,1.73-3,1.48-4.34a38.08,38.08,0,0,0-13.73-23.16c-6.68-5.5-13.64-10.67-20.65-15.76-17.61-12.8-30.51-29.12-37.77-49.76a136.79,136.79,0,0,0-22.21-39.44c-10.24-13-8.87-25.44,3.7-36.29,15.15-13.08,38.31-13.71,56.55-.41,6.58,4.79,11.6,11.77,17.11,17.94,2.95,3.31,5.43,7,8.12,10.57Zm206.79,159.53H1083.5c-8.3,0-12.65-3.29-12.58-9.43s4.38-9.17,12.81-9.18c11.84,0,23.67,0,35.5,0,2.61,0,4.13-.31,4.81-3.46,3.47-16.1,7.54-32.07,10.87-48.2,2.48-12,5.5-24.18,5.92-36.35.9-26.13.43-52.32.16-78.48a43.86,43.86,0,0,0-2.8-15.09c-5.19-13.47-20.65-21.9-32.83-18.46.13,2.46.44,4.95.36,7.44-.16,5.38-4,9.35-9,9.48-4.78.13-8.72-3.4-9.48-8.51-.26-1.82-.32-3.66-.66-5.46-2.48-13.13-19.83-22.93-32.4-18.09.19,2.22.46,4.51.58,6.81.34,6.89-3.07,11.35-8.81,11.63s-9.24-3.49-9.82-10.19c-1.3-15-15.86-25.54-30.69-22.29-3.85.85-5.57,2.43-5.36,6.72.47,9.31.52,18.66.42,28A8.79,8.79,0,0,1,992,519a9.14,9.14,0,0,1-9.9-7.9,42.59,42.59,0,0,1-.37-6c-.83-38.82-1.6-77.65-2.55-116.46a32,32,0,0,0-2.15-11.15A17.05,17.05,0,0,0,960.88,367a17.32,17.32,0,0,0-15.49,12.25,34.1,34.1,0,0,0-1.15,9.84q-.09,99.74-.06,199.48a29.67,29.67,0,0,1-.31,6A9.25,9.25,0,0,1,934,602c-4.46-.32-8.57-3.73-8.49-8.3.08-4.26-2.34-5.87-5-8.25a224.79,224.79,0,0,1-16.23-16.15c-2.59-2.79-4.59-6.13-6.8-9.26a35.08,35.08,0,0,0-23-14.61c-8.06-1.54-15.2.34-21.17,6.12-2.76,2.68-3.39,5.2-.57,8.57,11.88,14.21,20.44,30.31,26.74,47.71a74.54,74.54,0,0,0,23.79,33.38c7.92,6.35,16.21,12.25,24.26,18.46,13.51,10.4,22.23,23.73,24.62,40.86.17,1.26.57,2.49.94,4.07,13.89,0,27.53,0,41.17,0,6.95,0,11.14,3.72,11,9.47-.11,5.55-4.2,9.07-10.9,9.1-14.83.06-29.67,0-44.5,0h-5.7v46.42h187.94Z" transform="translate(-784.76 -308.93)"/>
    <path class="cls-1" d="M816.85,342.71h77.23a36,36,0,0,1,5,.15,9.21,9.21,0,0,1,.58,18.17,32,32,0,0,1-6,.33q-35,0-69.93,0h-5.28l-.66,1.39c5.22,5.07,10.74,9.87,15.5,15.34,2.06,2.37,3.8,6.25,3.48,9.21-.79,7.5-9.83,10.11-15.71,4.72-5.65-5.16-10.91-10.75-16.33-16.16s-10.89-10.77-16.23-16.26c-5-5.15-5-10.15,0-15.27q15.63-15.81,31.44-31.43c5-4.94,10.4-5.27,14.48-1.12s3.65,9.36-1.33,14.5S823,336.56,816.85,342.71Z" transform="translate(-784.76 -308.93)"/>
    <path class="cls-1" d="M1038.06,704.68a9.24,9.24,0,1,1,0,18.48,9.24,9.24,0,1,1,0-18.48Z" transform="translate(-784.76 -308.93)"/>
  </g>
</svg>
