<svg id="Calque_1" data-name="Calque 1" xmlns="http://www.w3.org/2000/svg" viewBox="0 0 376.02 376.02">
  <defs>
    <style>
      .cls-1 {
        fill: #79b09d;
      }

      .cls-2, .cls-3 {
        fill: #fff;
      }

      .cls-2 {
        fill-rule: evenodd;
      }

      .cls-4 {
        fill: none;
        stroke: #fff;
        stroke-width: 5px;
      }
    </style>
  </defs>
  <g id="Calque_2" data-name="Calque 2">
    <rect class="cls-1" width="376.02" height="376.02" rx="59.92"/>
  </g>
  <path class="cls-2" d="M1042.17,532s-82.26-53.67-85.47-55V466.24c10.15-2.83,16.94-12.2,16.94-23.25a24.18,24.18,0,0,0-41.33-17,24,24,0,0,0-7,17,6.46,6.46,0,0,0,6.52,6.42c3.6,0,5.23-4.15,5.23-7.71,0-6.21,6.69-11.9,12.82-11.9s12.53,7,12.53,13.19-6.8,11.27-12.94,11.27c-3.61,0-5.8,2.87-5.8,6.42v16c-2.44.89-85.87,55.24-85.87,55.24-6.17,6.23-14.58,31.34,14.81,31.34H1027c26.93,0,21.07-25.41,15.17-31.34Zm-12.09,20H869.26c-8.23,0-8-9.17-4.25-13.18L942.94,490a14.22,14.22,0,0,1,13.66,0l78.19,48.8c3.77,4,2.84,13.17-4.71,13.17Z" transform="translate(-760.61 -381.5)"/>
  <path class="cls-3" d="M926,623.46a28.85,28.85,0,0,1-1.09,7.95,30.35,30.35,0,0,1-3,7.14,29.69,29.69,0,0,1-4.68,6.05,31.1,31.1,0,0,1-6.06,4.73,29.33,29.33,0,0,1-7.14,3,29.54,29.54,0,0,1-15.9,0,30.35,30.35,0,0,1-7.14-3,31,31,0,0,1-6.05-4.73,30.61,30.61,0,0,1-4.72-6.05,31.36,31.36,0,0,1-3-7.14,29.74,29.74,0,0,1,3-23,30.67,30.67,0,0,1,4.72-6.06,29.69,29.69,0,0,1,6.05-4.68,30.35,30.35,0,0,1,7.14-3,29.54,29.54,0,0,1,15.9,0,29.33,29.33,0,0,1,7.14,3,30,30,0,0,1,10.74,10.74,29.33,29.33,0,0,1,3,7.14A28.79,28.79,0,0,1,926,623.46Zm-11.5,0a17.7,17.7,0,0,0-1.45-7.14,18.58,18.58,0,0,0-9.81-9.81,18.4,18.4,0,0,0-14.32,0,18.93,18.93,0,0,0-5.85,4,18.26,18.26,0,0,0-4,5.86,18.3,18.3,0,0,0,0,14.28,18.78,18.78,0,0,0,9.81,9.77,18.4,18.4,0,0,0,14.32,0,18.11,18.11,0,0,0,5.85-4,18.84,18.84,0,0,0,4-5.81A17.7,17.7,0,0,0,914.47,623.46ZM979.24,629a22.74,22.74,0,0,1-1.82,9,22.93,22.93,0,0,1-12.35,12.26,22.36,22.36,0,0,1-9,1.82,22.67,22.67,0,0,1-9-1.82,22.79,22.79,0,0,1-12.27-12.26,22.74,22.74,0,0,1-1.82-9V594.28h11.54V629a11.44,11.44,0,0,0,.89,4.48,11.89,11.89,0,0,0,6.18,6.17,11.68,11.68,0,0,0,4.52.89,11.36,11.36,0,0,0,4.47-.89,11.88,11.88,0,0,0,3.72-2.5,11.39,11.39,0,0,0,2.46-3.67,11,11,0,0,0,.93-4.48V594.28h11.58Zm34.34,23.12H1002V605.87H984.65V594.28h46.28v11.59h-17.35Z" transform="translate(-760.61 -381.5)"/>
  <path class="cls-3" d="M874.65,728.59V671.16h28.18v6.11L881.6,677l-.5,19.51,19.17-.08v5.86H881.18l.33,26.28Zm41.32,0V671.16h28.19v6.11L922.92,677l-.42,19.43h19.67v5.86H922.5l.42,20.33,21.24-.16v6.11Zm34.19,0,15.62-57.43h9.75l15.62,57.43H984l-3.88-15.2h-19l-3.88,15.2Zm12.48-21.32h16l-7.68-30h-.66Zm42.77,21.32.17-51.57-16.12.25v-6.11h38.84v6.11l-16.11-.25.16,51.57Z" transform="translate(-760.61 -381.5)"/>
  <line class="cls-4" y1="56.82" x2="376.02" y2="56.82"/>
</svg>
